<svg xmlns="http://www.w3.org/2000/svg" xmlns:xlink="http://www.w3.org/1999/xlink" version="1.1" id="Layer_1" x="0px" y="0px" style="enable-background:new 0 0 288 77;" xml:space="preserve" viewBox="1.68 0.49 172.91 76.3">
<style type="text/css">
	.st0{fill:#404041;}
	.st1{fill:#2B388F;}
	.st2{fill:#F05A28;}
	.st3{fill:#009345;}
</style>
<g>
	<g>
		<path class="st0" d="M1.68,72.98v-0.51h3.13v0.51H1.68z M2.96,76.68v-3.82h0.57v3.82H2.96z"/>
		<path class="st0" d="M8.34,76.68v-4.22h0.57v4.22H8.34z M8.79,74.84v-0.51h2.52v0.51H8.79z M11.2,76.68v-4.22h0.57v4.22H11.2z"/>
		<path class="st0" d="M15.76,76.68v-4.22h0.57v4.22H15.76z M16.21,72.98v-0.51h1.99v0.51H16.21z M16.21,74.8v-0.51h1.87v0.51H16.21    z M16.21,76.68v-0.51h2.04v0.51H16.21z"/>
		<path class="st0" d="M27.97,76.79c-0.33,0-0.62-0.05-0.89-0.16c-0.27-0.11-0.49-0.26-0.68-0.46c-0.19-0.2-0.34-0.43-0.44-0.7    s-0.16-0.56-0.16-0.87v-0.13c0-0.27,0.05-0.53,0.14-0.78c0.09-0.25,0.23-0.48,0.41-0.68c0.18-0.2,0.4-0.36,0.66-0.48    c0.26-0.12,0.55-0.18,0.87-0.18c0.35,0,0.66,0.07,0.94,0.2c0.27,0.13,0.49,0.32,0.66,0.55c0.17,0.24,0.26,0.51,0.29,0.82h-0.58    c-0.03-0.23-0.1-0.43-0.23-0.59c-0.13-0.16-0.28-0.27-0.47-0.35c-0.19-0.08-0.39-0.12-0.6-0.12c-0.22,0-0.42,0.04-0.61,0.12    c-0.18,0.08-0.34,0.19-0.48,0.34c-0.13,0.15-0.24,0.32-0.31,0.53s-0.11,0.43-0.11,0.69c0,0.29,0.04,0.54,0.12,0.76    c0.08,0.22,0.19,0.4,0.33,0.54c0.14,0.14,0.31,0.25,0.51,0.33c0.19,0.07,0.41,0.11,0.64,0.11c0.33,0,0.61-0.07,0.86-0.2    c0.25-0.13,0.44-0.3,0.56-0.52l-0.21,0.69V75h0.53v1c-0.19,0.25-0.43,0.44-0.73,0.58C28.69,76.72,28.35,76.79,27.97,76.79z     M27.82,75.11v-0.47h2.26v0.47H27.82z"/>
		<path class="st0" d="M33.65,76.68v-4.24h0.57v4.24H33.65z M34.01,75.16v-0.5h1.13c0.18,0,0.33-0.04,0.46-0.11    c0.13-0.07,0.23-0.17,0.29-0.3c0.07-0.13,0.1-0.28,0.1-0.44c0-0.17-0.03-0.31-0.1-0.44c-0.07-0.13-0.17-0.23-0.29-0.31    c-0.13-0.08-0.28-0.11-0.46-0.11h-1.13v-0.5h1.03c0.31,0,0.58,0.05,0.81,0.14c0.23,0.09,0.41,0.23,0.54,0.43    c0.13,0.19,0.19,0.44,0.19,0.74v0.09c0,0.3-0.06,0.55-0.19,0.74c-0.13,0.19-0.31,0.34-0.54,0.43c-0.23,0.09-0.5,0.14-0.81,0.14    H34.01z M36.26,76.68l-1.4-1.88h0.66l1.42,1.88H36.26z"/>
		<path class="st0" d="M42.29,76.79c-0.38,0-0.7-0.07-0.98-0.2c-0.27-0.13-0.5-0.31-0.68-0.53c-0.18-0.22-0.31-0.45-0.4-0.7    c-0.09-0.25-0.13-0.49-0.13-0.72V74.5c0-0.25,0.04-0.5,0.13-0.76c0.09-0.25,0.22-0.49,0.4-0.7c0.18-0.21,0.41-0.38,0.68-0.51    c0.27-0.13,0.59-0.19,0.96-0.19c0.37,0,0.69,0.06,0.96,0.19c0.27,0.13,0.5,0.3,0.68,0.51c0.18,0.21,0.32,0.44,0.4,0.7    c0.09,0.25,0.13,0.51,0.13,0.76v0.13c0,0.23-0.04,0.47-0.13,0.72c-0.09,0.25-0.22,0.48-0.4,0.7c-0.18,0.22-0.4,0.4-0.68,0.53    C42.99,76.72,42.66,76.79,42.29,76.79z M42.29,76.27c0.25,0,0.47-0.05,0.67-0.14c0.2-0.09,0.37-0.22,0.51-0.38    c0.14-0.16,0.24-0.34,0.32-0.54s0.11-0.41,0.11-0.64c0-0.23-0.04-0.45-0.11-0.66c-0.07-0.2-0.18-0.38-0.32-0.54    s-0.31-0.28-0.51-0.37c-0.2-0.09-0.42-0.13-0.67-0.13c-0.25,0-0.47,0.04-0.67,0.13c-0.2,0.09-0.37,0.21-0.51,0.37    s-0.24,0.34-0.32,0.54c-0.07,0.2-0.11,0.42-0.11,0.66c0,0.22,0.04,0.44,0.11,0.64s0.18,0.38,0.32,0.54    c0.14,0.16,0.31,0.29,0.51,0.38C41.82,76.22,42.04,76.27,42.29,76.27z"/>
		<path class="st0" d="M49.83,76.79c-0.38,0-0.7-0.07-0.96-0.22c-0.26-0.15-0.46-0.36-0.59-0.62s-0.2-0.58-0.2-0.93v-2.54h0.57v2.61    c0,0.23,0.05,0.44,0.14,0.62c0.09,0.18,0.22,0.32,0.4,0.42c0.18,0.1,0.39,0.15,0.65,0.15c0.25,0,0.47-0.05,0.64-0.15    c0.17-0.1,0.31-0.24,0.4-0.42c0.09-0.18,0.14-0.39,0.14-0.63v-2.61h0.57v2.54c0,0.35-0.07,0.66-0.2,0.93    c-0.13,0.27-0.33,0.48-0.58,0.62C50.54,76.71,50.22,76.79,49.83,76.79z"/>
		<path class="st0" d="M55.49,76.68v-4.24h0.57v4.24H55.49z M55.94,75.22v-0.5h0.94c0.2,0,0.37-0.04,0.5-0.12    c0.13-0.08,0.23-0.19,0.3-0.32c0.07-0.13,0.1-0.29,0.1-0.45c0-0.17-0.03-0.32-0.1-0.46c-0.07-0.13-0.17-0.24-0.3-0.32    c-0.13-0.08-0.3-0.12-0.5-0.12h-0.94v-0.5h0.84c0.35,0,0.64,0.05,0.87,0.16c0.23,0.11,0.41,0.26,0.53,0.46    c0.12,0.2,0.18,0.44,0.18,0.71v0.09c0,0.27-0.06,0.51-0.18,0.71c-0.12,0.2-0.3,0.36-0.53,0.47s-0.52,0.16-0.87,0.16H55.94z"/>
		<path class="st0" d="M67.94,76.79c-0.38,0-0.7-0.07-0.98-0.2c-0.27-0.13-0.5-0.31-0.68-0.53c-0.18-0.22-0.31-0.45-0.4-0.7    c-0.09-0.25-0.13-0.49-0.13-0.72V74.5c0-0.25,0.04-0.5,0.13-0.76c0.09-0.25,0.22-0.49,0.4-0.7c0.18-0.21,0.41-0.38,0.68-0.51    c0.27-0.13,0.59-0.19,0.96-0.19s0.69,0.06,0.96,0.19c0.27,0.13,0.5,0.3,0.68,0.51c0.18,0.21,0.32,0.44,0.4,0.7    c0.09,0.25,0.13,0.51,0.13,0.76v0.13c0,0.23-0.04,0.47-0.13,0.72c-0.09,0.25-0.22,0.48-0.4,0.7c-0.18,0.22-0.4,0.4-0.68,0.53    C68.64,76.72,68.31,76.79,67.94,76.79z M67.94,76.27c0.25,0,0.47-0.05,0.67-0.14c0.2-0.09,0.37-0.22,0.51-0.38    c0.14-0.16,0.24-0.34,0.32-0.54s0.11-0.41,0.11-0.64c0-0.23-0.04-0.45-0.11-0.66c-0.07-0.2-0.18-0.38-0.32-0.54    s-0.31-0.28-0.51-0.37c-0.2-0.09-0.42-0.13-0.67-0.13c-0.25,0-0.47,0.04-0.67,0.13c-0.2,0.09-0.37,0.21-0.51,0.37    s-0.24,0.34-0.32,0.54c-0.07,0.2-0.11,0.42-0.11,0.66c0,0.22,0.04,0.44,0.11,0.64s0.18,0.38,0.32,0.54    c0.14,0.16,0.31,0.29,0.51,0.38C67.47,76.22,67.69,76.27,67.94,76.27z"/>
		<path class="st0" d="M73.81,76.68v-4.22h0.57v4.22H73.81z M74.26,72.98v-0.51h1.91v0.51H74.26z M74.26,74.81V74.3l1.81-0.01v0.51    L74.26,74.81z"/>
		<path class="st0" d="M84.98,76.79c-0.27,0-0.52-0.06-0.74-0.17c-0.22-0.12-0.4-0.29-0.53-0.51c-0.13-0.23-0.19-0.51-0.19-0.85    v-0.14h0.57v0.25c0,0.29,0.08,0.51,0.25,0.67c0.17,0.16,0.38,0.24,0.65,0.24c0.26,0,0.48-0.08,0.65-0.24    c0.17-0.16,0.25-0.38,0.25-0.67v-2.49h0.57v2.39c0,0.34-0.06,0.62-0.19,0.85c-0.13,0.23-0.3,0.4-0.53,0.51    C85.51,76.73,85.26,76.79,84.98,76.79z M84.07,72.98v-0.51h2.38v0.51H84.07z"/>
		<path class="st0" d="M92.26,76.79c-0.38,0-0.7-0.07-0.98-0.2c-0.27-0.13-0.5-0.31-0.68-0.53c-0.18-0.22-0.31-0.45-0.4-0.7    c-0.09-0.25-0.13-0.49-0.13-0.72V74.5c0-0.25,0.04-0.5,0.13-0.76c0.09-0.25,0.22-0.49,0.4-0.7c0.18-0.21,0.41-0.38,0.68-0.51    c0.27-0.13,0.59-0.19,0.96-0.19s0.69,0.06,0.96,0.19c0.27,0.13,0.5,0.3,0.68,0.51c0.18,0.21,0.32,0.44,0.4,0.7    c0.09,0.25,0.13,0.51,0.13,0.76v0.13c0,0.23-0.04,0.47-0.13,0.72c-0.09,0.25-0.22,0.48-0.4,0.7c-0.18,0.22-0.4,0.4-0.68,0.53    C92.97,76.72,92.64,76.79,92.26,76.79z M92.26,76.27c0.25,0,0.47-0.05,0.67-0.14c0.2-0.09,0.37-0.22,0.51-0.38    c0.14-0.16,0.24-0.34,0.32-0.54s0.11-0.41,0.11-0.64c0-0.23-0.04-0.45-0.11-0.66c-0.07-0.2-0.18-0.38-0.32-0.54    s-0.31-0.28-0.51-0.37s-0.42-0.13-0.67-0.13c-0.25,0-0.47,0.04-0.67,0.13c-0.2,0.09-0.37,0.21-0.51,0.37    c-0.14,0.16-0.24,0.34-0.32,0.54c-0.07,0.2-0.11,0.42-0.11,0.66c0,0.22,0.04,0.44,0.11,0.64s0.18,0.38,0.32,0.54    c0.14,0.16,0.31,0.29,0.51,0.38C91.79,76.22,92.02,76.27,92.26,76.27z"/>
		<path class="st0" d="M98.15,76.68v-4.22h0.57v4.22H98.15z"/>
		<path class="st0" d="M102.73,76.68v-4.22h0.92l2.14,3.71h0.18l-0.12,0.1v-3.81h0.54v4.22h-0.94l-2.14-3.71h-0.18l0.12-0.1v3.81    H102.73z"/>
		<path class="st0" d="M109.94,72.98v-0.51h3.13v0.51H109.94z M111.22,76.68v-3.82h0.57v3.82H111.22z"/>
		<path class="st0" d="M121.67,76.68l-1.46-4.22h0.58l1.31,3.85l-0.28-0.14h0.69l-0.29,0.14l1.21-3.85h0.57l-1.36,4.22H121.67z"/>
		<path class="st0" d="M127.55,76.68v-4.22h0.57v4.22H127.55z M128,72.98v-0.51h1.99v0.51H128z M128,74.8v-0.51h1.86v0.51H128z     M128,76.68v-0.51h2.04v0.51H128z"/>
		<path class="st0" d="M133.79,76.68v-4.22h0.92l2.14,3.71h0.18l-0.12,0.1v-3.81h0.54v4.22h-0.94l-2.14-3.71h-0.18l0.12-0.1v3.81    H133.79z"/>
		<path class="st0" d="M141,72.98v-0.51h3.13v0.51H141z M142.28,76.68v-3.82h0.57v3.82H142.28z"/>
		<path class="st0" d="M149.32,76.79c-0.38,0-0.7-0.07-0.96-0.22c-0.26-0.15-0.46-0.36-0.59-0.62c-0.13-0.27-0.2-0.58-0.2-0.93    v-2.54h0.57v2.61c0,0.23,0.05,0.44,0.14,0.62c0.09,0.18,0.22,0.32,0.4,0.42c0.18,0.1,0.39,0.15,0.65,0.15    c0.25,0,0.47-0.05,0.64-0.15c0.17-0.1,0.31-0.24,0.4-0.42c0.09-0.18,0.14-0.39,0.14-0.63v-2.61h0.57v2.54    c0,0.35-0.07,0.66-0.2,0.93s-0.33,0.48-0.58,0.62C150.02,76.71,149.7,76.79,149.32,76.79z"/>
		<path class="st0" d="M154.98,76.68v-4.24h0.57v4.24H154.98z M155.33,75.16v-0.5h1.13c0.18,0,0.33-0.04,0.46-0.11    c0.13-0.07,0.23-0.17,0.29-0.3c0.07-0.13,0.1-0.28,0.1-0.44c0-0.17-0.03-0.31-0.1-0.44c-0.07-0.13-0.17-0.23-0.29-0.31    c-0.13-0.08-0.28-0.11-0.46-0.11h-1.13v-0.5h1.03c0.31,0,0.58,0.05,0.81,0.14c0.23,0.09,0.41,0.23,0.54,0.43    c0.13,0.19,0.19,0.44,0.19,0.74v0.09c0,0.3-0.06,0.55-0.19,0.74c-0.13,0.19-0.31,0.34-0.54,0.43c-0.23,0.09-0.5,0.14-0.81,0.14    H155.33z M157.58,76.68l-1.4-1.88h0.66l1.42,1.88H157.58z"/>
		<path class="st0" d="M161.79,76.68v-4.22h0.57v4.22H161.79z M162.24,72.98v-0.51h1.99v0.51H162.24z M162.24,74.8v-0.51h1.87v0.51    H162.24z M162.24,76.68v-0.51h2.04v0.51H162.24z"/>
		<path class="st0" d="M169.35,76.79c-0.35,0-0.65-0.06-0.89-0.17c-0.25-0.12-0.44-0.28-0.57-0.48c-0.13-0.2-0.2-0.43-0.2-0.69h0.57    c0,0.13,0.03,0.25,0.1,0.38c0.07,0.13,0.18,0.23,0.34,0.32s0.38,0.13,0.65,0.13c0.25,0,0.46-0.04,0.62-0.11s0.28-0.17,0.36-0.29    s0.12-0.25,0.12-0.4c0-0.17-0.08-0.32-0.23-0.43c-0.15-0.11-0.37-0.18-0.66-0.21l-0.47-0.04c-0.37-0.03-0.67-0.15-0.9-0.35    c-0.22-0.2-0.33-0.46-0.33-0.79c0-0.26,0.06-0.48,0.19-0.68c0.12-0.19,0.3-0.34,0.52-0.45c0.22-0.11,0.48-0.16,0.78-0.16    c0.29,0,0.55,0.05,0.77,0.16s0.4,0.26,0.52,0.45s0.19,0.43,0.19,0.7h-0.57c0-0.13-0.03-0.26-0.1-0.38    c-0.06-0.12-0.16-0.22-0.3-0.29c-0.13-0.08-0.31-0.12-0.53-0.12c-0.21,0-0.38,0.04-0.52,0.11c-0.14,0.07-0.24,0.17-0.31,0.29    c-0.07,0.12-0.1,0.24-0.1,0.38c0,0.15,0.06,0.29,0.18,0.41c0.12,0.12,0.3,0.19,0.53,0.21l0.47,0.04c0.29,0.02,0.54,0.08,0.75,0.18    c0.21,0.1,0.37,0.23,0.48,0.39c0.11,0.16,0.17,0.36,0.17,0.59c0,0.26-0.07,0.49-0.21,0.69c-0.14,0.2-0.33,0.36-0.58,0.47    C169.97,76.73,169.68,76.79,169.35,76.79z"/>
	</g>
	<path class="st1" d="M1.68,67.15l3.06-0.77V33.74l-3.06-0.77v-0.77h13.77c5.17,0,8.97,0.83,11.4,2.47c2.43,1.65,3.65,3.8,3.65,6.45   c0,1.84-0.53,3.32-1.58,4.44c-1.05,1.12-2.4,1.96-4.03,2.5c-1.73,0.61-3.6,0.94-5.61,0.97v0.26c2.48,0.1,4.64,0.48,6.48,1.12   c1.87,0.61,3.42,1.56,4.67,2.86c1.24,1.29,1.86,2.94,1.86,4.95c0,3.03-1.24,5.4-3.72,7.12c-2.48,1.72-6.51,2.58-12.09,2.58H1.68   V67.15z M15.45,48.53c1.12,0,2.17-0.31,3.14-0.94c0.97-0.63,1.75-1.51,2.35-2.65c0.59-1.14,0.89-2.41,0.89-3.8   c0-1.5-0.3-2.82-0.89-3.98c-0.6-1.16-1.38-2.06-2.35-2.7c-0.97-0.65-2.01-0.97-3.14-0.97h-2.3v15.05H15.45z M16.47,66.64   c2.11,0,3.83-0.75,5.15-2.24c1.33-1.5,1.99-3.55,1.99-6.17c0-2.62-0.66-4.68-1.99-6.17c-1.33-1.5-3.04-2.24-5.15-2.24h-3.32v16.83   H16.47z"/>
	<path class="st1" d="M32.03,66.64l14.54-22.95h-9.18c0,1.87-0.56,3.76-1.68,5.66c-0.44,0.71-0.99,1.38-1.63,1.99h-1.53v-8.93h23.21   v1.28L41.21,66.64h9.69c0-1.94,0.54-3.83,1.63-5.66c0.48-0.78,1.04-1.44,1.68-1.99h1.53v8.93H32.03V66.64z"/>
	<path class="st1" d="M71.81,67.15l3.06-0.77V43.94l-3.06-0.77v-0.77h4.59c2.01,0,3.59,0.65,4.74,1.94   c0.44,0.51,0.82,1.14,1.12,1.89c0.48-0.88,1.04-1.65,1.68-2.3c1.53-1.53,3.43-2.3,5.71-2.3c1.9,0,3.61,0.4,5.13,1.2   c1.51,0.8,2.69,1.84,3.54,3.14c0.85,1.29,1.28,2.65,1.28,4.08v16.32l3.06,0.77v0.77h-6.63c-3.06,0-4.59-1.53-4.59-4.59V50.06   c0-2.14-0.38-3.78-1.15-4.92s-1.66-1.71-2.68-1.71c-1.29,0-2.45,0.68-3.47,2.04c-0.44,0.58-0.82,1.26-1.12,2.04v18.87l3.06,0.77   v0.77H71.81V67.15z"/>
	<path class="st1" d="M107,67.13c-1.56-1.04-2.81-2.57-3.72-4.59c-0.92-2.02-1.38-4.48-1.38-7.37c0-4.35,1.01-7.69,3.03-10.02   c2.02-2.33,4.75-3.49,8.19-3.49c1.63,0,3.06,0.34,4.28,1.02c0.51,0.24,1.04,0.58,1.58,1.02v-9.95l-3.06-0.77v-0.77h6.63   c3.06,0,4.59,1.53,4.59,4.59v29.58l3.06,0.77v0.77h-4.59c-2.04,0-3.62-0.63-4.74-1.89c-0.48-0.51-0.85-1.16-1.12-1.94   c-0.44,0.85-1,1.61-1.68,2.3c-1.53,1.53-3.43,2.3-5.71,2.3C110.35,68.68,108.57,68.16,107,67.13z M117.82,64.86   c0.37-0.51,0.77-1.19,1.17-2.04v-17.6c-0.37-0.37-0.77-0.71-1.17-1.02c-0.92-0.68-1.8-1.02-2.65-1.02c-1.46,0-2.59,0.85-3.39,2.55   c-0.8,1.7-1.2,4.85-1.2,9.44c0,4.39,0.36,7.44,1.1,9.16c0.73,1.72,1.64,2.58,2.73,2.58C115.66,66.9,116.8,66.22,117.82,64.86z"/>
	<path class="st1" d="M129.7,67.15l3.06-0.77V43.94l-3.06-0.77v-0.77h6.63c3.06,0,4.59,1.53,4.59,4.59v19.38l3.06,0.77v0.77H129.7   V67.15z"/>
	<path class="st1" d="M133.78,38.33c-0.68-0.68-1.02-1.53-1.02-2.55c0-1.02,0.34-1.87,1.02-2.55c0.68-0.68,1.53-1.02,2.55-1.02   s1.87,0.34,2.55,1.02c0.68,0.68,1.02,1.53,1.02,2.55c0,1.02-0.34,1.87-1.02,2.55c-0.68,0.68-1.53,1.02-2.55,1.02   S134.46,39.01,133.78,38.33z"/>
	<path class="st1" d="M56.86,67.15l3.06-0.77V43.94l-3.06-0.77v-0.77h6.63c3.06,0,4.59,1.53,4.59,4.59v19.38l3.06,0.77v0.77H56.86   V67.15z"/>
	<path class="st1" d="M146.17,66.74c-1.63-1.29-2.45-2.94-2.45-4.95c0-1.33,0.29-2.63,0.87-3.93c0.24-0.61,0.54-1.17,0.92-1.68   c1.39-0.34,2.91-0.65,4.54-0.92c3.67-0.61,6.92-0.99,9.74-1.12v-1.53c0-3.77-0.46-6.38-1.38-7.8c-0.92-1.43-2.33-2.14-4.23-2.14   c-0.71,0-1.33,0.09-1.84,0.26l-0.71,0.26v7.65l-0.66,0.15c-0.54,0.07-1,0.1-1.38,0.1c-1.16,0-2.08-0.35-2.78-1.05   c-0.7-0.7-1.05-1.62-1.05-2.78c0-1.56,0.79-2.89,2.37-3.98c1.58-1.09,3.93-1.63,7.06-1.63c2.65,0,4.94,0.47,6.86,1.4   c1.92,0.94,3.38,2.23,4.39,3.88c1,1.65,1.5,3.54,1.5,5.69v13.77l3.06,0.77v0.77h-4.59c-2.04,0-3.62-0.63-4.74-1.89   c-0.48-0.51-0.85-1.16-1.12-1.94c-0.48,0.85-1.04,1.61-1.68,2.3c-1.53,1.53-3.43,2.3-5.71,2.3   C150.13,68.68,147.81,68.03,146.17,66.74z M158.62,64.86c0.37-0.51,0.77-1.19,1.17-2.04v-7.4c-1.56,0-3.06,0.09-4.49,0.26   c-1.05,0.14-1.77,0.22-2.14,0.26c-0.17,0.37-0.34,0.88-0.51,1.53c-0.34,1.29-0.51,2.57-0.51,3.83c0,1.9,0.29,3.32,0.87,4.23   c0.58,0.92,1.31,1.38,2.19,1.38C156.46,66.9,157.6,66.22,158.62,64.86z"/>
	<g>
		<g>
			<path class="st1" d="M102.62,39.58c-2.78,0.39-5.81,0.15-8.79-0.71c-4.87-1.41-9.13-4.17-13.02-6.95     c-0.87-0.62-1.73-1.25-2.6-1.88c-0.53-0.39-1.06-0.78-1.6-1.16c-2.85-2.06-5.29-3.73-7.95-5.13c-0.94-0.49-1.87-0.91-2.77-1.25     c-3.46-1.28-6.39-1.3-8.71-0.05l-0.94,0.51l0.44-0.98c0.84-1.86,2.02-3.57,3.52-5.08c0.3-0.3,0.61-0.6,0.94-0.88     c1.06-0.92,2.23-1.73,3.48-2.41c1.53-0.82,3.15-1.43,4.82-1.79c0.35-0.08,0.71-0.14,1.07-0.2c1.28-0.2,2.56-0.25,3.81-0.16     c2.7,0.19,5.57,1.02,8.76,2.53c0.92,0.43,1.87,0.92,2.91,1.5c1.12,0.62,2.25,1.28,3.33,1.92c2.38,1.4,4.85,2.85,7.42,3.95     c2.96,1.27,6.84,2.64,10.79,2c0.26-0.04,0.52-0.09,0.78-0.15c0.85-0.2,1.71-0.51,2.54-0.94c1.49-0.76,2.8-1.82,3.82-3.07l0,0     c1.01-1.24,1.67-2.63,1.92-4.03l0.55-3.12l0.17,3.17c0.09,1.63,0.1,3.12,0.04,4.55c-0.13,2.94-0.57,5.51-1.35,7.87l-0.02,0.07     c-0.07,0.22-0.15,0.43-0.23,0.65c-0.21,0.57-0.44,1.12-0.69,1.65c-0.08,0.18-0.17,0.36-0.26,0.54c-1.56,3.09-3.78,5.55-6.42,7.09     c-0.67,0.39-1.39,0.74-2.13,1.02c-0.29,0.11-0.58,0.21-0.87,0.31C104.49,39.24,103.57,39.44,102.62,39.58z M59.7,20.88     c1.91-0.27,4.07,0.04,6.46,0.93c0.93,0.34,1.89,0.78,2.86,1.29c2.69,1.42,5.16,3.1,8.03,5.18c0.53,0.39,1.07,0.78,1.6,1.17     c0.86,0.63,1.73,1.26,2.59,1.88c3.83,2.74,8.03,5.46,12.8,6.84c3.86,1.12,7.8,1.15,11.11,0.1c0.28-0.09,0.56-0.19,0.83-0.29     c0.71-0.27,1.39-0.6,2.03-0.97c2.51-1.47,4.64-3.82,6.14-6.79c0.09-0.17,0.17-0.34,0.25-0.52c0.24-0.51,0.46-1.05,0.67-1.59     c0.08-0.21,0.15-0.42,0.22-0.63l0.37,0.04l-0.34-0.11c0.76-2.3,1.19-4.81,1.31-7.68c0.03-0.77,0.05-1.55,0.04-2.36     c-0.36,0.79-0.83,1.56-1.42,2.28c-1.07,1.33-2.48,2.45-4.05,3.25c-0.88,0.45-1.79,0.79-2.7,1c-0.27,0.06-0.55,0.12-0.82,0.16     c-4.11,0.66-8.13-0.74-11.19-2.05c-2.61-1.12-5.1-2.58-7.5-3.99c-1.08-0.64-2.2-1.29-3.32-1.91c-1.03-0.57-1.97-1.05-2.87-1.48     c-3.11-1.47-5.89-2.27-8.5-2.46c-1.2-0.09-2.42-0.03-3.64,0.16c-0.34,0.05-0.68,0.12-1.02,0.19c-1.6,0.35-3.16,0.93-4.63,1.72     c-1.2,0.65-2.33,1.43-3.34,2.31c-0.31,0.27-0.61,0.55-0.9,0.84c-1.19,1.2-2.18,2.53-2.94,3.96C58.4,21.14,59.03,20.98,59.7,20.88     z"/>
		</g>
		<path class="st2" d="M104.3,0.5c-1.36,0.06-2.71,0.37-3.96,0.92c-1.7,0.75-3.23,1.95-4.4,3.57c-0.02,0.03-0.04,0.06-0.07,0.09    c-0.18,0.26-0.35,0.53-0.51,0.8C94.64,7.12,94.19,8.45,94,9.8c-0.31,2.21,0.06,4.46,1.07,6.45c0.05,0.09,0.1,0.19,0.15,0.28    c0.77,1.41,1.86,2.67,3.27,3.66c1.96,1.39,4.23,2.03,6.46,1.98c1.6-0.03,3.18-0.42,4.62-1.13c1.03-0.51,1.98-1.19,2.82-2.03    c0.38-0.38,0.74-0.8,1.08-1.25c0.04-0.06,0.09-0.12,0.13-0.18c0.09-0.12,0.17-0.25,0.25-0.37c0.79-1.23,1.31-2.56,1.56-3.91    c0.23-1.26,0.24-2.53,0.02-3.78c-0.47-2.75-1.98-5.31-4.44-7.04C108.95,1.04,106.6,0.41,104.3,0.5z"/>
		<path class="st3" d="M70.19,31.95c0.15-1.08,0.06-2.19-0.27-3.22c-0.13-0.4-0.29-0.8-0.48-1.17c-0.52-1.01-1.29-1.92-2.29-2.62    c-2.08-1.47-4.66-1.7-6.87-0.85c-0.11,0.04-0.22,0.09-0.33,0.14c-0.39,0.17-0.77,0.38-1.13,0.62c-0.72,0.48-1.37,1.11-1.9,1.86    c-0.2,0.29-0.38,0.59-0.54,0.9c-0.24,0.47-0.43,0.96-0.56,1.45c-0.27,1-0.31,2.04-0.15,3.05c0.3,1.88,1.33,3.65,3.01,4.83    c1.19,0.84,2.55,1.28,3.91,1.34c1.85,0.08,3.7-0.54,5.14-1.79c0.43-0.38,0.83-0.82,1.18-1.31c0.16-0.22,0.3-0.45,0.42-0.68    C69.78,33.68,70.06,32.82,70.19,31.95z"/>
	</g>
	<g>
		<path class="st0" d="M168.1,37.23h1.76v0.22h-0.75v2.46h-0.27v-2.46h-0.75V37.23z"/>
		<path class="st0" d="M170.33,37.26h0.28l1.03,2.3l1.03-2.3h0.29v2.65h-0.27v-2.12l-0.94,2.12h-0.2l-0.94-2.11v2.11h-0.27V37.26z"/>
	</g>
	<g>
		<path class="st0" d="M170.66,42.41c-2.17,0-3.93-1.76-3.93-3.93c0-2.17,1.76-3.93,3.93-3.93c2.17,0,3.93,1.76,3.93,3.93    C174.6,40.65,172.83,42.41,170.66,42.41z M170.66,34.74c-2.06,0-3.74,1.68-3.74,3.74c0,2.06,1.68,3.74,3.74,3.74    c2.06,0,3.74-1.68,3.74-3.74C174.41,36.42,172.73,34.74,170.66,34.74z"/>
	</g>
</g>
</svg>